<svg xmlns="http://www.w3.org/2000/svg" version="1.1" xmlns:xlink="http://www.w3.org/1999/xlink" xmlns:svgjs="http://svgjs.com/svgjs" width="512" height="512" x="0" y="0" viewBox="0 0 500 500" style="enable-background:new 0 0 512 512" xml:space="preserve" class=""><g><path d="M258.41 23.858c89.425 6.959 172.958 59.397 206.967 154.001 6.466 17.986 11.656 36.258 13.419 55.385 4.04 43.835-4.052 85.308-24.431 124.298-33.335 63.778-97.51 108.482-169.138 118.064-79.923 10.691-159.425-19.785-210.912-81.279-32.775-39.145-51.059-84.367-53.863-135.383-6.487-118.013 78.695-215.646 189.31-232.571 18.33-2.805 36.75-3.368 48.648-2.515zm35.317 162.013-.042-.318c.597-.121 1.192-.256 1.791-.361 10.926-1.917 21.438-5.105 31.653-9.495 26.317-11.308 40.263-39.325 39.858-60.5-.31-16.21-5.424-30.275-18.116-41.025-8.004-6.78-17.354-10.469-27.578-12.165-16.657-2.762-30.937 2.772-43.853 12.793-7.131 5.532-12.488 12.248-15.468 21.053-3.859 11.4-2.583 22.053 3.033 32.338 6.711 12.292 17.688 17.734 31.217 17.216 13.75-.526 23.716-7.52 28.992-20.483 2.859-7.023 2.439-14.139-.222-21.144-.816-2.149-2.05-4.099-4.417-4.836-.619-.193-1.575-.075-2.05.306-.329.264-.23 1.252-.099 1.869.531 2.509 1.327 4.973 1.704 7.502 2.282 15.325-7.544 25.807-18.83 28.471-10.818 2.554-23.239-2.003-28.486-10.718-9.444-15.685-6.137-34.614 7.947-45.463 13.091-10.084 27.197-14.554 43.703-9.888 28.285 7.996 39.67 33.46 34.242 56.703-4.477 19.171-15.778 33.674-33.53 42.782-12.455 6.391-25.706 10.349-39.44 12.761-3.01.529-6.107.985-9.139.864-4.508-.18-8.993-.93-13.492-1.39-37.451-3.831-74.951-5.397-112.479-1.4-23.798 2.535-46.577 8.872-67.918 19.946-4.541 2.357-8.805 5.113-12.482 8.687a18.119 18.119 0 0 0-2.912 3.65c-.367.614-.102 1.605-.124 2.426.768-.2 1.639-.234 2.289-.63 3.372-2.051 6.522-4.538 10.05-6.251 25.637-12.448 52.816-19.092 81.191-20.883 31.994-2.019 63.911-.629 95.785 2.477 22.319 2.175 44.646 4.292 66.988 6.212 18.997 1.633 38.032 1.438 57.05.235 8.715-.551 17.221-2.255 24.992-6.429 7.643-4.105 13.936-9.681 17.285-17.942 2.273-5.608 2.105-11.203-1.049-16.476-2.161-3.614-5.57-5.233-9.711-4.956-4.511.301-7.528 3.166-10.018 6.606-.32.442.15 1.455.253 2.204.708-.17 1.53-.166 2.101-.543 1.62-1.067 3.085-2.372 4.712-3.428 1.589-1.031 3.363-1.286 5.238-.728 3.274.973 5.356 3.943 5.589 8.102.297 5.307-2.245 9.417-5.672 13.089-7.938 8.505-18.164 12.176-29.388 13.248-16.683 1.594-33.399.934-50.071-.257-13.156-.94-26.275-2.384-39.411-3.608-.558-.048-1.111-.146-1.666-.223zM192.911 328.857l.001.026c-9.146 1.657-17.91 4.288-25.966 9.01-14.97 8.775-25.95 20.458-29.871 38.057-3.775 16.945.166 31.415 12.664 43.329 9.754 9.297 21.963 12.836 35.102 12.651 19.369-.272 33.454-9.406 41.918-26.883 4.487-9.265 3.657-18.456-1.411-27.226-5.188-8.978-12.693-14.659-23.422-15.146-14.313-.651-29.906 10.5-30.817 29.875-.055 1.181.291 2.554.922 3.533.42.652 1.78 1.177 2.535.995.711-.171 1.368-1.265 1.712-2.093.424-1.021.427-2.209.737-3.288 2.119-7.378 5.148-14.063 12-18.5 7.813-5.058 17.79-5.53 24.854-.696 7.815 5.348 12.269 15.983 9.782 24.796-3.836 13.591-12.704 22.916-26.019 27.359-13.732 4.582-26.898 1.915-38.577-6.151-10.758-7.43-15.909-18.219-15.039-31.443.228-3.474 1.11-6.956 2.092-10.317 1.994-6.824 4.216-13.634 9.058-19.08 7.408-8.332 16.142-14.911 26.643-18.879 16.687-6.306 34.139-7.964 51.715-6.977 21.82 1.225 43.583 3.462 65.375 5.196 17.062 1.358 34.115 1.329 51.202.069 22.333-1.647 43.574-6.976 63.408-17.524.992-.528 1.992-1.08 2.864-1.776.355-.283.627-1.073.482-1.463-.132-.356-.875-.662-1.355-.673-.73-.015-1.498.154-2.193.403a147.426 147.426 0 0 0-5.8 2.229c-12.893 5.24-26.045 9.449-39.966 11.067-18.487 2.148-37.019 2.191-55.506.788-30.941-2.347-61.839-5.263-92.759-7.889-20.09-1.706-40.166-3.717-60.382-2.663-14.693.766-28.904 3.53-42.272 9.898-6.716 3.199-13.203 6.81-18.596 12.023-5.952 5.753-9.115 12.807-8.359 21.147.486 5.355 2.782 9.96 8.097 12.236.108.046.221.082.337.108 1.666.38 2.962-1.656 1.959-3.04l-.024-.032c-3.388-4.552-4.264-9.538-2.82-14.971 1.569-5.898 5.355-10.101 10.262-13.488 8.849-6.107 18.558-10.218 28.984-12.723 18.667-4.483 37.545-3.404 56.449-1.874zm-5.776-75.056c-1.459 20.179 9.2 37.595 28.022 44.948 16.053 6.271 31.656 4.362 46.223-4.494 13.886-8.442 22.724-20.796 24.745-37.068 3.425-27.58-18.989-52.386-46.824-52.084-30.477.331-50.028 24.177-52.166 48.698zm188.657 17.804c2.62-.926 5.065-1.702 7.442-2.648 6.223-2.476 11.468-6.203 14.973-12.066 5.784-9.674 5.304-19.761 1.178-29.677-3.015-7.247-8.627-11.96-16.754-12.995-2.614-.333-5.239-.694-7.868-.789-16.325-.582-32.466 1.145-48.525 3.934-1.942.337-2.857 1.358-3.088 3.191-.33 2.615-.797 5.223-.956 7.849a15890.569 15890.569 0 0 0-3.577 61.325c-.176 3.13-.154 6.276-.119 9.413.023 2.153.834 3.037 2.928 3.095 2.377.066 4.871.345 7.117-.236 4.781-1.235 4.657-.57 4.966-5.251.418-6.33.844-12.661 1.095-18.999.078-1.97.623-2.658 2.685-2.702 6.338-.138 12.673-.471 19.002-.852 1.245-.075 1.916.27 2.644 1.225 6.129 8.04 12.325 16.028 18.476 24.051 1.165 1.52 2.662 2.252 4.441 1.602a144.37 144.37 0 0 0 10.105-4.109c1.824-.828 2.151-2.651.975-4.277-.659-.911-1.525-1.669-2.234-2.547-4.955-6.144-9.895-12.302-14.906-18.537zm-260.14-38.326c1.588-.254 2.88-.47 4.175-.668 15.751-2.409 31.506-4.788 47.247-7.255 1.962-.308 3.855-1.066 5.773-1.636 1.264-.376 1.874-1.3 1.751-2.565-.307-3.176-.609-6.357-1.092-9.508-.296-1.929-2.029-3.271-3.984-3.267-1.88.004-3.777.045-5.637.292-15.74 2.086-31.48 4.169-47.203 6.375-4.716.662-9.405 1.584-14.054 2.621-3.154.703-4.208 2.266-4.332 5.503-.055 1.443-.105 2.894-.021 4.333 1.211 20.625 2.383 41.253 3.719 61.87.332 5.126 1.084 10.237 1.879 15.318.661 4.22 1.464 4.622 5.631 3.782 2.274-.459 4.548-.924 6.833-1.322 3.102-.54 4.211-1.792 4.107-5.004-.187-5.772-.439-11.542-.671-17.313-.168-4.182-.346-8.365-.518-12.498.341-.146.505-.255.684-.287 9.263-1.629 18.529-3.247 27.792-4.878 2.99-.526 4.015-1.659 3.941-4.724a101.21 101.21 0 0 0-.584-8.823c-.318-2.844-1.769-3.918-4.677-3.518-5.966.82-11.919 1.734-17.874 2.63-3.509.528-7.013 1.096-10.69 1.673l-2.195-21.131zm-12.422-71.223c.21-.454.284-.671.402-.86 10.337-16.564 21.875-32.202 35.71-46.046 10.938-10.945 22.267-21.442 35.436-29.732 5.751-3.62 11.679-6.904 18.159-9.067 4.979-1.662 10.061-2.402 15.327-1.49 8.583 1.486 15.029 8.637 15.917 17.302 1.221 11.925-3.709 21.028-13.657 27.53-4.705 3.075-10.034 3.868-15.568 2.768-7.625-1.516-10.895-7.776-7.884-14.908 1.627-3.855 4.7-6.126 8.364-7.719 5.688-2.473 11.64-3.448 17.838-3.034 1.608.107 3.581.697 4.226-1.652.422-1.538-.682-2.66-3.496-3.399-10.843-2.848-20.412.181-28.402 7.422-5.211 4.721-7.307 11.293-4.997 18.263 2.311 6.973 8.098 10.282 15.203 11.245 7.329.993 14.74-1.188 20.639-5.648 9.02-6.818 13.865-16.059 14.046-27.729.107-6.894-1.487-13.392-5.998-18.809-6.655-7.991-15.545-9.984-25.355-8.684-9.598 1.271-17.998 5.684-26.139 10.668-10.887 6.665-20.531 14.871-29.717 23.664-11.143 10.668-21.58 21.987-30.151 34.836-6.751 10.121-12.958 20.606-19.312 30.987-.407.665-.361 2.284.105 2.643.627.484 2.023.516 2.815.149 4.091-1.896 7.959-4.339 12.154-5.937 17.059-6.496 34.955-8.824 53.026-8.837 16.126-.012 32.252 1.277 48.379 1.975 10.356.448 20.713.872 31.046-.435 4.817-.609 9.62-1.389 13.863-3.873 1.66-.972 2.985-2.571 4.305-4.028.107-.119.131-.313.115-.544-.058-.82-.904-1.435-1.671-1.14a1.094 1.094 0 0 0-.235.123c-3.234 2.261-6.912 3.247-10.728 3.802-8.492 1.235-17.034 1.195-25.57.715-14.738-.829-29.467-1.811-44.203-2.669-10.542-.614-21.088-.906-31.613.351-14.41 1.72-28.536 4.469-41.485 11.474-.195.105-.421.154-.894.323zm261.932 216c.006-.008-.086.157-.222.267-9.303 7.487-17.112 16.41-24.786 25.491a423.684 423.684 0 0 1-15.939 17.84c-5.589 5.903-11.753 11.174-19.086 14.876-9.941 5.018-20.243 6.211-30.749 2.274-8.487-3.18-12.784-12.844-9.51-21.296 2.79-7.201 7.449-12.967 14.291-16.68 5.232-2.84 10.84-4.509 16.858-3.08 9.046 2.148 12.358 11.363 7.419 18.079-1.524 2.072-3.129 4.087-4.56 6.221l-.015.023c-.737 1.149.387 2.752 1.717 2.447.088-.02.172-.049.251-.088 1.038-.511 1.982-1.347 2.758-2.228 1.658-1.882 3.193-3.873 4.76-5.834 5.372-6.724 3.182-15.847-2.095-20.621-4.224-3.822-9.25-5.459-14.871-5.339-15.265.324-28.798 10.194-33.823 24.618-4.776 13.711 2.1 27.378 15.954 31.549 6.849 2.062 13.833 2.431 20.879 1.138 9.406-1.726 17.416-6.288 24.675-12.312 10.108-8.388 18.71-18.229 26.922-28.402 10.361-12.834 21.827-24.473 35.553-33.713 3.948-2.658 8.216-4.839 12.313-7.278 2.021-1.203 2.68-2.67 1.982-4.116-.724-1.5-2.432-1.885-4.625-.803-2.474 1.22-4.825 2.689-7.292 3.924-2.512 1.257-5.011 2.638-7.669 3.486-11.559 3.687-23.447 4.566-35.39 2.811-9.68-1.423-19.277-3.469-28.864-5.461-12.081-2.511-24.178-4.706-36.597-4.145-6.137.278-12.128 1.168-17.593 4.242-3.355 1.888-6.099 4.423-7.974 7.795-.05.09-.088.186-.116.288-.297 1.056.755 2.096 1.812 1.805.115-.032.226-.072.332-.123 1.062-.517 2.036-1.243 2.984-1.966 3.645-2.78 7.786-4.556 12.298-4.784 5.81-.294 11.732-.62 17.458.155 9.692 1.31 19.297 3.337 28.887 5.31 11.572 2.381 23.09 5.156 35.006 4.84 5.565-.144 11.116-.79 16.667-1.21z" fill="#000000" opacity="1" data-original="#000000" class=""></path><path d="M243.065 223.082c16.457 1.528 24.937 12.524 25.592 26.242.834 17.474-12.385 32.785-29.725 34.747-22.643 2.562-37.341-18.333-29.207-38.422 4.8-11.854 13.664-19.461 26.398-22.149a17.41 17.41 0 0 1 2.799-.337c1.626-.073 3.258-.066 4.143-.081zM335.943 258.467c.122-3.53.222-6.968.364-10.405.203-4.894.467-9.787.634-14.682.04-1.154.415-1.575 1.596-1.782 11.889-2.084 23.774-1.284 35.664-.073.311.032.618.11.926.17 4.235.837 7.586 2.729 8.515 7.36.967 4.823.117 9.161-3.816 12.457-4.756 3.985-10.546 5.457-16.5 6.272a95.782 95.782 0 0 1-11.25.855c-5.319.095-10.645-.099-16.133-.172z" fill="#000000" opacity="1" data-original="#000000" class=""></path><path d="M253.684 497.264a255.83 255.83 0 0 1-20.19-.796c-33.69-2.659-65.972-11.78-95.95-27.105-30.327-15.505-56.786-36.599-78.638-62.699C23.084 363.88 3.389 314.348.373 259.449-3.005 198.007 16.658 138.278 55.74 91.263c38.271-46.036 91.903-76.371 151.02-85.415 17.856-2.735 38.219-3.768 53.138-2.696l.453.035c49.24 3.888 95.64 20.441 134.182 47.869 41.268 29.369 72.34 70.651 89.86 119.383 8.22 22.868 12.835 42.046 14.521 60.355 4.394 47.677-4.569 93.262-26.639 135.484-17.843 34.137-44.31 64.066-76.54 86.55-32.181 22.451-69.454 37.028-107.79 42.155a258.6 258.6 0 0 1-34.261 2.281zM247.202 8.499c-12.449 0-26.666 1.069-39.57 3.044C149.909 20.374 97.54 49.994 60.171 94.948 22.023 140.839 2.828 199.149 6.125 259.133c2.949 53.628 22.192 102.021 57.199 143.834 21.354 25.502 47.208 46.115 76.844 61.265 29.298 14.979 60.85 23.893 93.78 26.494a252.427 252.427 0 0 0 53.234-1.454c37.43-5.006 73.828-19.243 105.259-41.171 31.472-21.955 57.313-51.173 74.73-84.492 21.547-41.224 30.296-85.733 26.008-132.288-1.642-17.809-6.156-36.536-14.206-58.933-17.121-47.621-47.474-87.953-87.78-116.637-37.694-26.824-83.095-43.014-131.295-46.821l.002.002-.309-.024c-3.817-.275-7.994-.409-12.389-.409z" fill="#000000" opacity="1" data-original="#000000" class=""></path></g></svg>